<?xml version="1.0" encoding="UTF-8" standalone="no"?>
<svg width="315px" height="66px" viewBox="0 0 315 66" version="1.1" xmlns="http://www.w3.org/2000/svg" xmlns:xlink="http://www.w3.org/1999/xlink" xmlns:sketch="http://www.bohemiancoding.com/sketch/ns">
    <!-- Generator: Sketch 3.5.2 (25235) - http://www.bohemiancoding.com/sketch -->
    <title>vuforia_logo</title>
    <desc>Created with Sketch.</desc>
    <defs></defs>
    <g id="Page-1" stroke="none" stroke-width="1" fill="none" fill-rule="evenodd" sketch:type="MSPage">
        <g id="vuforia_logo" sketch:type="MSLayerGroup" fill="#0A0B09">
            <path d="M22.499,64.7164478 L0,5.2918209 L16.898,5.2918209 L30.555,43.7146567 L44.212,5.2918209 L60.424,5.2918209 L37.924,64.7164478 L22.499,64.7164478" id="Fill-1" sketch:type="MSShapeGroup"></path>
            <path d="M104.637,64.7164478 L89.211,64.7164478 L89.211,60.9416418 C88.032,62.2971045 86.394,63.4269851 84.298,64.3302985 C82.202,65.2326269 79.909,65.6847761 77.421,65.6847761 C72.573,65.6847761 68.775,64.2327761 66.024,61.3297612 C63.273,58.4257612 61.897,54.5544179 61.897,49.7157313 L61.897,21.1643284 L77.225,21.1643284 L77.225,46.134 C77.225,47.9416119 77.682,49.4408955 78.6,50.6338209 C79.517,51.8287164 80.958,52.4256716 82.923,52.4256716 C84.362,52.4256716 85.674,51.9892836 86.853,51.1184776 C88.032,50.2476716 88.817,49.0705075 89.211,47.586 L89.211,21.1643284 L104.637,21.1643284 L104.637,64.7164478" id="Fill-2" sketch:type="MSShapeGroup"></path>
            <path d="M140.105,14.4865075 C139.646,14.2924478 139.171,14.1318806 138.681,14.0018507 C138.189,13.872806 137.615,13.8087761 136.961,13.8087761 C135.585,13.8087761 134.39,14.2116716 133.375,15.0184478 C132.359,15.826209 131.852,17.067403 131.852,18.7449851 L131.852,21.1643284 L140.4,21.1643284 L140.4,32.9714328 L131.852,32.9714328 L131.852,64.7164478 L116.623,64.7164478 L116.623,32.9714328 L110.041,32.9714328 L110.041,21.1643284 L116.623,21.1643284 L116.623,17.9707164 C116.623,12.7439104 118.245,8.59871642 121.487,5.53414925 C124.729,2.46958209 128.968,0.93680597 134.21,0.93680597 C135.716,0.93680597 137.158,1.06585075 138.533,1.32295522 C139.909,1.58202985 141.054,1.90414925 141.972,2.29128358 L140.105,14.4865075" id="Fill-3" sketch:type="MSShapeGroup"></path>
            <path d="M173.413,42.9403881 C173.413,39.9743284 172.774,37.5205075 171.497,35.5848358 C170.219,33.6501493 168.368,32.6808358 165.945,32.6808358 C163.587,32.6808358 161.769,33.6501493 160.492,35.5848358 C159.215,37.5205075 158.577,39.9743284 158.577,42.9403881 C158.577,45.9084179 159.215,48.3445075 160.492,50.2476716 C161.769,52.1508358 163.587,53.1024179 165.945,53.1024179 C168.368,53.1024179 170.219,52.1508358 171.497,50.2476716 C172.774,48.3445075 173.413,45.9084179 173.413,42.9403881 L173.413,42.9403881 Z M188.542,42.9403881 C188.542,49.6517015 186.446,55.1198507 182.255,59.3448358 C178.062,63.571791 172.626,65.6847761 165.945,65.6847761 C159.329,65.6847761 153.91,63.571791 149.685,59.3448358 C145.46,55.1198507 143.347,49.6517015 143.347,42.9403881 C143.347,36.2310448 145.46,30.7628955 149.685,26.5359403 C153.91,22.3109552 159.329,20.196 165.945,20.196 C172.626,20.196 178.062,22.3109552 182.255,26.5359403 C186.446,30.7628955 188.542,36.2310448 188.542,42.9403881 L188.542,42.9403881 Z" id="Fill-4" sketch:type="MSShapeGroup"></path>
            <path d="M224.208,35.5848358 C223.29,35.1336716 222.307,34.795791 221.259,34.5682388 C220.211,34.3436418 219.064,34.2293731 217.822,34.2293731 C215.724,34.2293731 213.99,34.6657612 212.614,35.5365672 C211.238,36.4073731 210.354,37.6170448 209.96,39.1655821 L209.96,64.7164478 L194.536,64.7164478 L194.536,21.1643284 L209.96,21.1643284 L209.96,25.0356716 C211.008,23.6171642 212.384,22.4547761 214.087,21.5504776 C215.791,20.6481493 217.755,20.196 219.983,20.196 C220.965,20.196 221.833,20.2777612 222.586,20.4383284 C223.338,20.6008657 223.878,20.777194 224.208,20.9712537 L224.208,35.5848358" id="Fill-5" sketch:type="MSShapeGroup"></path>
            <path d="M230.396,21.1643284 L245.822,21.1643284 L245.822,64.7164478 L230.396,64.7164478 L230.396,21.1643284 Z M246.903,9.35623881 C246.903,11.8090746 246.034,13.7772537 244.298,15.2607761 C242.563,16.7452836 240.517,17.4860597 238.158,17.4860597 C235.8,17.4860597 233.752,16.7452836 232.017,15.2607761 C230.281,13.7772537 229.414,11.8090746 229.414,9.35623881 C229.414,6.84035821 230.281,4.84164179 232.017,3.35614925 C233.752,1.87262687 235.8,1.1298806 238.158,1.1298806 C240.517,1.1298806 242.563,1.87262687 244.298,3.35614925 C246.034,4.84164179 246.903,6.84035821 246.903,9.35623881 L246.903,9.35623881 Z" id="Fill-6" sketch:type="MSShapeGroup"></path>
            <path d="M278.735,50.0053433 C278.276,49.1030149 277.441,48.3760299 276.23,47.8283284 C275.017,47.2806269 273.69,47.005791 272.25,47.005791 C270.743,47.005791 269.351,47.3446567 268.074,48.021403 C266.797,48.6991343 266.159,49.7482388 266.159,51.1667463 C266.159,52.6512537 266.797,53.7318806 268.074,54.4086269 C269.351,55.0863582 270.743,55.426209 272.25,55.426209 C273.69,55.426209 275.017,55.1513731 276.23,54.6026866 C277.441,54.0549851 278.276,53.3614925 278.735,52.5212239 L278.735,50.0053433 L278.735,50.0053433 Z M278.735,64.7164478 L278.735,62.4911642 C278.013,63.201403 276.654,63.8791343 274.658,64.5233731 C272.659,65.1666269 270.482,65.4907164 268.124,65.4907164 C263.8,65.4907164 260.032,64.297791 256.825,61.9099701 C253.615,59.5241194 252.01,56.0399104 252.01,51.4573433 C252.01,47.2628955 253.647,43.9087164 256.923,41.3918507 C260.196,38.8749851 264.226,37.6170448 269.007,37.6170448 C270.841,37.6170448 272.708,37.8593731 274.608,38.3430448 C276.507,38.8267164 277.882,39.3931343 278.735,40.0373731 L278.735,37.2299104 C278.735,35.8123881 278.276,34.6017313 277.359,33.6008955 C276.441,32.6010448 275.033,32.1006269 273.134,32.1006269 C271.693,32.1006269 270.498,32.3764478 269.548,32.9231642 C268.598,33.4728358 267.861,34.2293731 267.337,35.1977015 L253.779,32.2946866 C255.088,28.8104776 257.496,25.9232239 261,23.6319403 C264.503,21.3416418 268.746,20.196 273.724,20.196 C280.011,20.196 284.89,21.7612836 288.363,24.8898806 C291.834,28.0204478 293.571,32.3912239 293.571,38.0051642 L293.571,64.7164478 L278.735,64.7164478 L278.735,64.7164478 Z" id="Fill-7" sketch:type="MSShapeGroup"></path>
            <path d="M288.905,3.62507463 L299.422,3.62507463 L299.422,5.82376119 L295.5,5.82376119 L295.5,15.7592239 L292.88,15.7592239 L292.88,5.82376119 L288.905,5.82376119 L288.905,3.62507463 L288.905,3.62507463 Z M306.985,15.7592239 L303.829,7.73677612 L303.829,15.7592239 L301.41,15.7592239 L301.41,3.62507463 L304.516,3.62507463 L307.86,12.222806 L311.207,3.62507463 L314.307,3.62507463 L314.307,15.7592239 L311.885,15.7592239 L311.885,7.73677612 L308.729,15.7592239 L306.985,15.7592239 L306.985,15.7592239 Z" id="Fill-8" sketch:type="MSShapeGroup"></path>
        </g>
    </g>
</svg>